<?xml version="1.0" encoding="UTF-8"?>
<!-- Created with Inkscape (http://www.inkscape.org/) -->
<svg width="532.02" height="649.46" version="1.1" viewBox="0 0 140.76 171.84" xmlns="http://www.w3.org/2000/svg">
 <g transform="translate(-60.149 -59.483)">
  <path d="m122.4 231.16-62.237-0.0673-9e-3 -72.495-9e-3 -72.495h15.615v15.388l4.5641-0.0767c2.5102-0.0422 5.1296-0.12328 5.8208-0.18023l1.2568-0.10355v-15.028h15.875v15.081l1.5214 0.0583c0.83674 0.0321 3.4553 0.0618 5.8191 0.0661l4.2977 8e-3 2e-3 -7.6068 2e-3 -7.6068h14.288v-20.331l9.3328-6.291 8.721 6.3811c0.10691 0.14552 0.19621 7.0676 0.19843 15.383l4e-3 15.118-3.8494 0.0291c-7.2962 0.0551-11.385 1.159-17.354 4.6852-4.073 2.4061-5.4495 3.477-8.8241 6.865-2.6616 2.6722-3.9631 4.247-5.6672 6.8574-1.332 2.0405-1.8587 3.3827-0.73679 1.8778 1.0826-1.4522 4.5417-4.9628 6.1369-6.2283 5.6184-4.4572 13.894-8.0122 19.976-8.5809 4.4917-0.41998 6.1478-0.46359 7.6958-0.20266 0.93331 0.15732 2.2327 0.35842 2.8876 0.44688 4.5469 0.61426 10.829 3.5835 14.236 6.7284 0.4811 0.4441 1.1015 0.92882 1.3786 1.0772 0.48098 0.25741 0.48763 0.22349 0.1459-0.74508-0.19692-0.55812-0.66581-1.6221-1.042-2.3644-0.76904-1.5176-1.277-3.444-0.95989-3.64 0.75478-0.46648 5.396 5.4857 7.6581 9.8211 0.50749 0.97265 1.7613 2.5644 3.1414 3.988 2.5426 2.6228 3.7062 4.0241 4.6066 5.5478l0.60062 1.0163 0.16747-1.4552c0.0921-0.80036 0.31719-1.8124 0.50019-2.249 0.2037-0.48595 0.39526-2.7432 0.49399-5.8208l0.16127-5.0271 0.69171-0.0803c0.74383-0.0863 0.89912 0.2731 1.1778 2.7261 0.0661 0.58209 0.23266 1.8322 0.37005 2.7781 0.77801 5.3566 0.90136 6.998 0.91758 12.209l0.0178 5.7272 0.73313-0.379c0.8177-0.42271 1.8875-1.9888 3.1724-4.6443 0.47133-0.97408 0.9351-1.7778 1.0306-1.7859 0.0955-8e-3 0.24856 0.61018 0.34016 1.3742 0.0916 0.76398 0.27561 2.1034 0.40893 2.9766 0.13331 0.87313 0.34923 2.5995 0.47982 3.8365 0.19117 1.8106 0.40656 2.5326 1.1052 3.7042 2.315 3.8823 2.9163 5.3047 2.9163 6.8986 0 1.9991-0.26901 2.2132-3.7703 3.0018-0.99962 0.22513-0.91559 0.65754 0.39688 2.0422 3.1067 3.2776 5.0645 4.3812 8.1359 4.586 1.9839 0.13227 3.9688 0.53442 3.9688 0.8041 0 0.39892-1.701 4.5792-1.996 4.9052-0.31761 0.35096-0.31964 0.49229-0.0133 0.92961 1.6634 2.3748 1.659 8.9674-8e-3 12.04-0.86908 1.6021-1.4224 1.9606-1.4224 0.9217 0-0.99779-0.9477-3.6636-1.6927-4.7614-0.35458-0.52251-0.58082-1.1635-0.50839-1.4404 0.0718-0.27445 0.0141-0.57093-0.12813-0.65884 0 0-0.44116-0.58979-2.0423 0.48391-0.54669 0.371-1.3356 0.67454-1.7531 0.67454-0.67152 0-0.72391-0.0563-0.45427-0.48806 0.23392-0.37456 0.21905-0.75474-0.0639-1.6347-0.20279-0.63064-0.48777-1.1846-0.63329-1.2311-0.14552-0.0464-0.50271 0.77005-0.79375 1.8144-0.29104 1.0444-0.64823 1.9358-0.79375 1.981-0.15256 0.0474-0.28815-0.60255-0.32025-1.5351-0.0306-0.88951-0.25105-2.2055-0.48984-2.9245-0.39106-1.1774-0.47749-1.2697-0.87037-0.92988-0.51825 0.44825-1.9863 0.76301-2.55 0.54671-0.23623-0.0907-0.40337-0.49359-0.40857-0.98499-0.0113-1.0673-0.75705-1.9552-1.736-2.0668-0.80731-0.0921-0.92811-0.32966-1.6935-3.3307l-0.28727-1.1263-0.94386 1.7878c-1.7959 3.4015-2.0608 3.3332-1.8124-0.46783 0.13686-2.0951 0.0987-3.1388-0.13548-3.7042-0.17932-0.43291-0.3837-0.78711-0.45417-0.78711-0.0705 0-0.48189 0.29766-0.91425 0.66146-0.96094 0.80858-1.6481 0.84096-2.1656 0.10205-0.26778-0.38232-0.77509-0.60261-1.6025-0.69587l-1.2107-0.13646v-1.9583c0-2.2198-0.16568-2.4079-1.7827-2.024l-0.99545 0.23634 0.0674 2.1058c0.21645 6.7579 1.8347 13.609 4.4696 18.924 1.3153 2.6528 3.0388 4.4277 5.3084 5.4668 5.3139 0.59953 5.3118-2.5312-0.0403 5.3419-1.1036 1.5925-4.0584 2.6553-6.101 2.1943-1.0544-0.23796-1.0558-0.24004-0.39203-0.55844 0.87994-0.42207 1.8472-1.8643 1.8472-2.7543 0-0.39118-0.0703-0.71123-0.15632-0.71123-0.22993 0-7.4973 3.6576-8.5456 4.3009-0.4932 0.30266-0.84468 0.44105-0.78107 0.30752 0.0636-0.13353 0.46714-0.95715 0.89673-1.8303 0.77967-1.5847 0.78106-1.5962 0.78106-6.4823 0-5.4381-0.34426-7.2943-1.9709-10.627-1.5562-3.1882-2.8473-4.2232-9.5413-7.6489-1.093-0.55934-2.4622-1.4768-3.0427-2.0388-0.58051-0.56201-1.4452-1.2914-1.9216-1.6209-0.82484-0.57052-2.1115-2.2992-3.4536-4.6399-1.2324-2.1493-2.2529-8.9464-1.6509-10.996 0.16149-0.5497 0.22928-0.41559 0.40124 0.79375 0.25909 1.8221 1.1254 4.1348 2.362 6.3057 1.3122 2.3037 1.837 2.921 3.4639 4.0752 1.8991 1.3472 2.7257 1.4905 3.6511 0.63284 0.39742-0.36832 0.7207-0.76466 0.7184-0.88074-2e-3 -0.11609-0.66473-0.92545-1.4721-1.7986-1.5513-1.6777-2.4874-3.236-3.4785-5.7903-0.77303-1.9924-0.94558-2.9407-1.263-6.9414-0.0822-1.0361-0.19109-2.1077-0.24198-2.3812-0.0509-0.27357-0.17716-1.0332-0.2806-1.688l-0.18807-1.1906 0.82463 0.92604c0.45355 0.50932 1.4362 1.8121 2.1836 2.8951 2.2654 3.2824 4.2016 5.6852 4.8676 6.0407 0.71541 0.38185 1.9352 0.17537 2.1416-0.36253 0.23155-0.60342-0.73214-2.776-2.3557-5.3108-1.5791-2.4653-3.2168-4.2142-4.6312-4.9456-1.5321-0.79225-4.7673-0.55057-7.392 0.55222-39.642 19.727 6.987 92.584 45.289 102.69l-1.9844-0.0457c-1.0914-0.0251-29.991-0.0759-64.221-0.11292zm65.289-77.129c-0.70681-1.3275-2.4732-3.3703-2.9143-3.3703-0.14303 0-0.3321 0.28708-0.42016 0.63795-0.22735 0.90583 0.61886 2.6263 2.2967 4.6695l1.4252 1.7356 0.14169-1.2064c0.11313-0.96325 6e-3 -1.4603-0.52917-2.4664zm-6.2471-7.6497c-0.0162-1.4285-0.18262-2.0963-0.87101-3.4946-1.0484-2.1297-2.3894-3.3169-4.5829-4.0574-1.8921-0.63872-5.1202-1.0146-5.3614-0.62434-0.0867 0.14027 0.41222 0.84314 1.1087 1.5619 0.69646 0.7188 1.735 2.1083 2.3077 3.0877 1.5724 2.6887 5.1238 5.502 6.7574 5.353 0.63571-0.058 0.66068-0.12908 0.64148-1.8263zm-39.006-65.438v-5.1594h-7.4083v10.319h7.4083z" fill="#88171a" stroke-width=".26458"/>
 </g>
</svg>
